<svg width="65" height="65" viewBox="0 0 65 65" fill="none" xmlns="http://www.w3.org/2000/svg">
<g clip-path="url(#clip0_709_19332)">
<mask id="mask0_709_19332" style="mask-type:alpha" maskUnits="userSpaceOnUse" x="0" y="0" width="65" height="65">
<rect width="65" height="65" fill="#D9D9D9"/>
</mask>
<g mask="url(#mask0_709_19332)">
<path d="M26.4062 56.875C24.1042 56.875 22.1181 56.0738 20.4479 54.4714C18.7778 52.8689 17.8299 50.9392 17.6042 48.6823C14.8958 48.3212 12.6389 47.125 10.8333 45.0938C9.02778 43.0625 8.125 40.6701 8.125 37.9167C8.125 36.9687 8.24913 36.0321 8.4974 35.1068C8.74566 34.1814 9.11806 33.3125 9.61458 32.5C9.11806 31.6875 8.74566 30.8299 8.4974 29.9271C8.24913 29.0243 8.125 28.0764 8.125 27.0833C8.125 24.3299 9.02778 21.9488 10.8333 19.9401C12.6389 17.9314 14.8733 16.7465 17.5365 16.3854C17.6719 14.0833 18.5972 12.1311 20.3125 10.5286C22.0278 8.92622 24.059 8.125 26.4062 8.125C27.5799 8.125 28.6745 8.35069 29.6901 8.80208C30.7057 9.25347 31.6424 9.86285 32.5 10.6302C33.3125 9.86285 34.2378 9.25347 35.276 8.80208C36.3142 8.35069 37.4201 8.125 38.5937 8.125C40.941 8.125 42.9609 8.91493 44.6536 10.4948C46.3464 12.0747 47.2604 14.0156 47.3958 16.3177C50.059 16.6788 52.3047 17.875 54.1328 19.9062C55.9609 21.9375 56.875 24.3299 56.875 27.0833C56.875 28.0764 56.7509 29.0243 56.5026 29.9271C56.2543 30.8299 55.8819 31.6875 55.3854 32.5C55.8819 33.3125 56.2543 34.1814 56.5026 35.1068C56.7509 36.0321 56.875 36.9687 56.875 37.9167C56.875 40.7153 55.9609 43.1189 54.1328 45.1276C52.3047 47.1363 50.0365 48.3212 47.3281 48.6823C47.1024 50.9392 46.1658 52.8689 44.5182 54.4714C42.8707 56.0738 40.8958 56.875 38.5937 56.875C37.4653 56.875 36.3707 56.6606 35.3099 56.2318C34.2491 55.803 33.3125 55.2049 32.5 54.4375C31.6424 55.2049 30.6944 55.803 29.6563 56.2318C28.6181 56.6606 27.5347 56.875 26.4062 56.875ZM35.2083 16.9271V48.0729C35.2083 49.0208 35.5356 49.822 36.1901 50.4766C36.8446 51.1311 37.6458 51.4583 38.5937 51.4583C39.4965 51.4583 40.2752 51.0972 40.9297 50.375C41.5842 49.6528 41.934 48.8403 41.9792 47.9375C41.0312 47.5764 40.1623 47.0911 39.3724 46.4818C38.5825 45.8724 37.8715 45.1389 37.2396 44.2812C36.7882 43.6493 36.6189 42.9722 36.7318 42.25C36.8446 41.5278 37.217 40.941 37.849 40.4896C38.4809 40.0382 39.158 39.8689 39.8802 39.9818C40.6024 40.0946 41.1892 40.467 41.6406 41.099C42.1372 41.8212 42.7691 42.3741 43.5365 42.7578C44.3038 43.1415 45.1389 43.3333 46.0417 43.3333C47.5312 43.3333 48.8064 42.803 49.8672 41.7422C50.928 40.6814 51.4583 39.4062 51.4583 37.9167C51.4583 37.691 51.447 37.4653 51.4245 37.2396C51.4019 37.0139 51.3455 36.7882 51.2552 36.5625C50.4878 37.0139 49.6641 37.3524 48.7839 37.5781C47.9036 37.8038 46.9896 37.9167 46.0417 37.9167C45.2743 37.9167 44.6311 37.6571 44.112 37.138C43.5929 36.6189 43.3333 35.9757 43.3333 35.2083C43.3333 34.441 43.5929 33.7977 44.112 33.2786C44.6311 32.7595 45.2743 32.5 46.0417 32.5C47.5312 32.5 48.8064 31.9696 49.8672 30.9089C50.928 29.8481 51.4583 28.5729 51.4583 27.0833C51.4583 25.5937 50.928 24.3299 49.8672 23.2917C48.8064 22.2535 47.5312 21.7118 46.0417 21.6667C45.5451 22.4792 44.9019 23.1901 44.112 23.7995C43.322 24.4089 42.4531 24.8941 41.5052 25.2552C40.783 25.526 40.0833 25.5035 39.4062 25.1875C38.7292 24.8715 38.2778 24.3524 38.0521 23.6302C37.8264 22.908 37.8602 22.2083 38.1536 21.5313C38.447 20.8542 38.9549 20.4028 39.6771 20.1771C40.3542 19.9514 40.9071 19.5451 41.3359 18.9583C41.7648 18.3715 41.9792 17.6944 41.9792 16.9271C41.9792 15.9792 41.6519 15.178 40.9974 14.5234C40.3429 13.8689 39.5417 13.5417 38.5937 13.5417C37.6458 13.5417 36.8446 13.8689 36.1901 14.5234C35.5356 15.178 35.2083 15.9792 35.2083 16.9271ZM29.7917 48.0729V16.9271C29.7917 15.9792 29.4644 15.178 28.8099 14.5234C28.1554 13.8689 27.3542 13.5417 26.4062 13.5417C25.4583 13.5417 24.6571 13.8689 24.0026 14.5234C23.3481 15.178 23.0208 15.9792 23.0208 16.9271C23.0208 17.6493 23.224 18.3151 23.6302 18.9245C24.0365 19.5339 24.5781 19.9514 25.2552 20.1771C25.9774 20.4028 26.4965 20.8542 26.8125 21.5313C27.1285 22.2083 27.1736 22.908 26.9479 23.6302C26.6771 24.3524 26.2031 24.8715 25.526 25.1875C24.849 25.5035 24.1493 25.526 23.4271 25.2552C22.4792 24.8941 21.6102 24.4089 20.8203 23.7995C20.0304 23.1901 19.3872 22.4792 18.8906 21.6667C17.4462 21.7118 16.1936 22.2648 15.1328 23.3255C14.072 24.3863 13.5417 25.6389 13.5417 27.0833C13.5417 28.5729 14.072 29.8481 15.1328 30.9089C16.1936 31.9696 17.4687 32.5 18.9583 32.5C19.7257 32.5 20.3689 32.7595 20.888 33.2786C21.4071 33.7977 21.6667 34.441 21.6667 35.2083C21.6667 35.9757 21.4071 36.6189 20.888 37.138C20.3689 37.6571 19.7257 37.9167 18.9583 37.9167C18.0104 37.9167 17.0964 37.8038 16.2161 37.5781C15.3359 37.3524 14.5122 37.0139 13.7448 36.5625C13.6545 36.7882 13.5981 37.0139 13.5755 37.2396C13.553 37.4653 13.5417 37.691 13.5417 37.9167C13.5417 39.4062 14.072 40.6814 15.1328 41.7422C16.1936 42.803 17.4687 43.3333 18.9583 43.3333C19.8611 43.3333 20.6962 43.1415 21.4635 42.7578C22.2309 42.3741 22.8628 41.8212 23.3594 41.099C23.8108 40.467 24.3976 40.0946 25.1198 39.9818C25.842 39.8689 26.5191 40.0382 27.151 40.4896C27.783 40.941 28.1554 41.5278 28.2682 42.25C28.3811 42.9722 28.2118 43.6493 27.7604 44.2812C27.1285 45.1389 26.4063 45.8837 25.5938 46.5156C24.7813 47.1476 23.901 47.6441 22.9531 48.0052C22.9983 48.908 23.3594 49.7092 24.0365 50.4089C24.7135 51.1085 25.5035 51.4583 26.4062 51.4583C27.3542 51.4583 28.1554 51.1311 28.8099 50.4766C29.4644 49.822 29.7917 49.0208 29.7917 48.0729Z" fill="#1C1B1F"/>
</g>
</g>
<defs>
<clipPath id="clip0_709_19332">
<rect width="65" height="65" fill="white"/>
</clipPath>
</defs>
</svg>
